<?xml version="1.0" encoding="UTF-8"?>
<!DOCTYPE svg PUBLIC "-//W3C//DTD SVG 1.1//EN" "http://www.w3.org/Graphics/SVG/1.1/DTD/svg11.dtd">
<!-- Creator: CorelDRAW 2018 (64-Bit Evaluation Version) -->
<svg xmlns="http://www.w3.org/2000/svg" xml:space="preserve" width="5in" height="1.72971in" version="1.1" style="shape-rendering:geometricPrecision; text-rendering:geometricPrecision; image-rendering:optimizeQuality; fill-rule:evenodd; clip-rule:evenodd"
viewBox="0 0 5000 1729.71"
 xmlns:xlink="http://www.w3.org/1999/xlink">
 <defs>
  <style type="text/css">
   <![CDATA[
    .fil0 {fill:#E50913}
    .fil1 {fill:white}
    .fil2 {fill:white;fill-rule:nonzero}
   ]]>
  </style>
 </defs>
 <g id="Layer_x0020_1">
  <metadata id="CorelCorpID_0Corel-Layer"/>
  <rect class="fil0" y="-0" width="5000" height="1729.71"/>
  <path class="fil1" d="M1788.69 1311.04c-89.3,96.11 -216.78,156.26 -358.31,156.26 -75.12,0 -146.27,-16.96 -209.86,-47.22 -0.21,-5.91 -0.35,-11.84 -0.35,-17.8 0,-136.79 56.17,-260.44 146.7,-349.19 81.22,-11.37 156.04,-42.68 219.35,-88.83 11.86,-8.64 27.58,-8.11 38.82,1.33 6.75,5.67 13.35,11.52 19.79,17.53 7.61,7.12 11.04,16.58 9.74,26.93 -1.29,10.34 -6.94,18.67 -16.07,23.69l-74.83 41.2c-49.2,27.09 -67.29,89.5 -40.2,138.7l0 0c27.09,49.2 89.5,67.29 138.7,40.2l79.48 -43.76c8.94,-4.93 18.76,-5.33 28.07,-1.15 9.32,4.17 15.56,11.76 17.83,21.72 4.16,18.13 7.31,36.66 9.38,55.5 1.04,9.43 -1.78,17.96 -8.23,24.91z"/>
  <path class="fil1" d="M1612.74 483.07c51.92,15.54 81.41,70.24 65.87,122.16 -22.64,75.62 -156.56,117.56 -206.43,46.28 -0.5,-0.71 -1.32,-1.03 -2.17,-0.85 -0.84,0.18 -1.46,0.82 -1.61,1.67 -0.13,0.68 -0.29,1.36 -0.49,2.04 -3.04,10.13 -13.7,15.89 -23.83,12.85 -10.13,-3.03 -15.88,-13.7 -12.85,-23.83 3.03,-10.13 13.7,-15.88 23.83,-12.85 0.85,0.26 1.67,0.57 2.46,0.93 0.79,0.36 1.66,0.22 2.3,-0.37 0.64,-0.59 0.84,-1.45 0.55,-2.26 -29.89,-81.74 76.86,-168.36 152.39,-145.75z"/>
  <path class="fil1" d="M1691.51 896.83c-272.63,2.17 -492.98,223.85 -492.98,497 0,5.76 0.13,11.5 0.33,17.21 -167.74,-79.83 -283.69,-217.56 -283.69,-449.01 0,-215.54 179.38,-449.9 414.96,-490.43 40.09,-6.89 58.87,-5.56 81.5,4.31 12,5.23 19.97,15.64 20.44,28.72 0.47,13.08 -6.5,24.52 -18.34,30.11l-70.12 33.09c-58.34,27.53 -83.55,97.79 -56.02,156.13l0 0c27.54,58.34 97.8,83.55 156.13,56.02l100.33 -47.35c124.4,-58.7 178.31,69.93 178.81,127.08 0.08,9.67 -0.91,18.37 -7.15,25.77 -6.24,7.39 -14.54,11.28 -24.22,11.35z"/>
  <path class="fil2" d="M2083.07 1108.03c-56.15,0 -102.53,-18.66 -139.14,-55.98 -36.6,-37.31 -54.91,-83.34 -54.91,-138.07 0,-55.09 18.3,-101.2 54.91,-138.34 36.61,-37.14 82.99,-55.71 139.14,-55.71 33.76,0 64.95,7.91 93.56,23.72 28.61,15.81 50.91,37.22 66.91,64.24l-63.44 36.78c-9.24,-16.7 -22.39,-29.76 -39.45,-39.19 -17.06,-9.41 -36.25,-14.12 -57.57,-14.12 -36.25,0 -65.48,11.37 -87.69,34.12 -22.21,22.74 -33.31,52.24 -33.31,88.49 0,35.89 11.1,65.21 33.31,87.96 22.22,22.74 51.44,34.12 87.69,34.12 21.33,0 40.61,-4.71 57.84,-14.13 17.24,-9.41 30.3,-22.3 39.18,-38.65l63.44 36.78c-16,27.01 -38.2,48.43 -66.64,64.24 -28.43,15.81 -59.7,23.72 -93.83,23.72zm262.28 -112.48c9.24,33.41 34.3,50.11 75.17,50.11 26.3,0 46.2,-8.88 59.71,-26.66l55.44 31.99c-26.3,38.03 -65.04,57.04 -116.21,57.04 -44.07,0 -79.43,-13.33 -106.09,-39.98 -26.66,-26.65 -39.98,-60.24 -39.98,-100.76 0,-40.16 13.15,-73.65 39.45,-100.49 26.3,-26.83 60.06,-40.25 101.29,-40.25 39.09,0 71.34,13.5 96.75,40.52 25.41,27.01 38.12,60.42 38.12,100.22 0,8.89 -0.89,18.3 -2.67,28.26l-200.98 0zm-1.07 -53.31l135.94 0c-3.91,-18.12 -12,-31.63 -24.26,-40.52 -12.26,-8.89 -26.21,-13.33 -41.85,-13.33 -18.48,0 -33.76,4.71 -45.85,14.13 -12.08,9.42 -20.08,22.66 -23.99,39.72zm252.69 158.33l0 -389.16 68.77 0 0 389.16 -68.77 0zm131.67 0l0 -389.16 68.77 0 0 389.16 -68.77 0zm189.78 -105.02c9.24,33.41 34.3,50.11 75.17,50.11 26.3,0 46.2,-8.88 59.7,-26.66l55.44 31.99c-26.3,38.03 -65.04,57.04 -116.21,57.04 -44.07,0 -79.43,-13.33 -106.09,-39.98 -26.66,-26.65 -39.98,-60.24 -39.98,-100.76 0,-40.16 13.15,-73.65 39.45,-100.49 26.3,-26.83 60.06,-40.25 101.29,-40.25 39.09,0 71.35,13.5 96.76,40.52 25.41,27.01 38.12,60.42 38.12,100.22 0,8.89 -0.89,18.3 -2.67,28.26l-200.97 0zm-1.07 -53.31l135.94 0c-3.91,-18.12 -11.99,-31.63 -24.25,-40.52 -12.26,-8.89 -26.21,-13.33 -41.85,-13.33 -18.48,0 -33.76,4.71 -45.85,14.13 -12.08,9.42 -20.08,22.66 -23.99,39.72zm407.81 -115.68c35.9,0 66.55,13.59 91.96,40.78 25.41,27.19 38.11,60.5 38.11,99.95 0,39.45 -12.7,72.77 -38.11,99.96 -25.41,27.19 -56.06,40.78 -91.96,40.78 -37.31,0 -66.1,-12.97 -86.36,-38.92l0 138.07 -68.77 0 0 -373.17 68.77 0 0 31.45c20.26,-25.94 49.04,-38.92 86.36,-38.92zm-65.57 194.85c13.86,14.04 31.45,21.06 52.78,21.06 21.32,0 39,-7.02 53.04,-21.06 14.04,-14.04 21.06,-32.07 21.06,-54.11 0,-22.04 -7.02,-40.07 -21.06,-54.11 -14.04,-14.04 -31.72,-21.06 -53.04,-21.06 -21.33,0 -38.92,7.02 -52.78,21.06 -13.86,14.04 -20.79,32.07 -20.79,54.11 0,22.04 6.93,40.07 20.79,54.11zm446.73 -187.38l68.77 0 0 266.55 -68.77 0 0 -31.45c-20.61,25.94 -49.58,38.92 -86.9,38.92 -35.54,0 -66.01,-13.6 -91.42,-40.78 -25.41,-27.19 -38.12,-60.51 -38.12,-99.96 0,-39.45 12.7,-72.76 38.12,-99.95 25.41,-27.19 55.89,-40.78 91.42,-40.78 37.32,0 66.28,12.97 86.9,38.92l0 -31.45zm-126.88 187.38c13.86,14.04 31.45,21.06 52.78,21.06 21.33,0 39.01,-7.02 53.05,-21.06 14.04,-14.04 21.06,-32.07 21.06,-54.11 0,-22.04 -7.02,-40.07 -21.06,-54.11 -14.04,-14.04 -31.72,-21.06 -53.05,-21.06 -21.32,0 -38.91,7.02 -52.78,21.06 -13.86,14.04 -20.79,32.07 -20.79,54.11 0,22.04 6.93,40.07 20.79,54.11zm455 -250.21l73.57 0 -120.39 329.81c-13.86,38.03 -32.25,65.75 -55.09,82.99 -22.92,17.24 -51.35,24.96 -85.47,23.19l0 -63.97c18.48,0.35 33.14,-3.55 43.98,-11.73 10.84,-8.17 19.46,-21.32 25.85,-39.45l-109.28 -258.02 75.17 0 69.48 179.12 82.19 -241.94z"/>
 </g>
</svg>
