<?xml version="1.0" encoding="UTF-8"?>
<!DOCTYPE svg PUBLIC "-//W3C//DTD SVG 1.1//EN" "http://www.w3.org/Graphics/SVG/1.1/DTD/svg11.dtd">
<!-- Creator: CorelDRAW 2018 (64-Bit Evaluation Version) -->
<svg xmlns="http://www.w3.org/2000/svg" xml:space="preserve" width="0.881965in" height="1in" version="1.1" style="shape-rendering:geometricPrecision; text-rendering:geometricPrecision; image-rendering:optimizeQuality; fill-rule:evenodd; clip-rule:evenodd"
viewBox="0 0 245.41 278.25"
 xmlns:xlink="http://www.w3.org/1999/xlink">
 <defs>
  <style type="text/css">
   <![CDATA[
    .fil0 {fill:white}
   ]]>
  </style>
 </defs>
 <g id="Layer_x0020_1">
  <metadata id="CorelCorpID_0Corel-Layer"/>
  <path class="fil0" d="M243.06 234.77c-24.85,26.74 -60.32,43.48 -99.7,43.48 -20.9,0 -40.7,-4.72 -58.39,-13.14 -0.06,-1.64 -0.1,-3.29 -0.1,-4.95 0,-38.06 15.63,-72.47 40.82,-97.16 22.6,-3.16 43.42,-11.88 61.04,-24.72 3.3,-2.4 7.67,-2.26 10.8,0.37 1.88,1.58 3.71,3.2 5.51,4.88 2.12,1.98 3.07,4.61 2.71,7.49 -0.36,2.88 -1.93,5.19 -4.47,6.59l-20.82 11.46c-13.69,7.54 -18.72,24.9 -11.19,38.59l0 0c7.54,13.69 24.9,18.72 38.59,11.19l22.11 -12.18c2.49,-1.37 5.22,-1.48 7.81,-0.32 2.59,1.16 4.33,3.27 4.96,6.04 1.16,5.05 2.03,10.2 2.61,15.44 0.29,2.62 -0.49,5 -2.29,6.93z"/>
  <path class="fil0" d="M194.1 4.39c14.45,4.32 22.65,19.54 18.33,33.99 -6.3,21.04 -43.56,32.71 -57.44,12.88 -0.14,-0.2 -0.37,-0.29 -0.6,-0.24 -0.23,0.05 -0.41,0.23 -0.45,0.46 -0.04,0.19 -0.08,0.38 -0.14,0.57 -0.84,2.82 -3.81,4.42 -6.63,3.58 -2.82,-0.84 -4.42,-3.81 -3.58,-6.63 0.84,-2.82 3.81,-4.42 6.63,-3.58 0.24,0.07 0.47,0.16 0.68,0.26 0.22,0.1 0.46,0.06 0.64,-0.1 0.18,-0.16 0.23,-0.4 0.15,-0.63 -8.32,-22.74 21.39,-46.85 42.4,-40.55z"/>
  <path class="fil0" d="M216.02 119.52c-75.86,0.6 -137.17,62.29 -137.17,138.29 0,1.6 0.04,3.2 0.09,4.79 -46.67,-22.21 -78.94,-60.54 -78.94,-124.94 0,-59.97 49.91,-125.19 115.46,-136.46 11.15,-1.92 16.38,-1.55 22.68,1.2 3.34,1.45 5.56,4.35 5.69,7.99 0.13,3.64 -1.81,6.82 -5.1,8.38l-19.51 9.21c-16.23,7.66 -23.25,27.21 -15.59,43.44l0 0c7.66,16.23 27.21,23.25 43.44,15.59l27.92 -13.17c34.61,-16.33 49.62,19.46 49.75,35.36 0.02,2.69 -0.25,5.11 -1.99,7.17 -1.74,2.06 -4.05,3.14 -6.74,3.16z"/>
 </g>
</svg>
